<svg width="60" height="60" viewBox="0 0 60 60" fill="none" xmlns="http://www.w3.org/2000/svg">
<circle cx="44.0005" cy="25" r="16" fill="#FFCB4C" fill-opacity="0.8"/>
<path fill-rule="evenodd" clip-rule="evenodd" d="M12.0366 36.0923C12.0123 35.7317 12 35.3678 12 35.001C12 26.1644 19.1634 19.001 28 19.001C34.4489 19.001 40.0067 22.8163 42.5393 28.3128C44.1773 27.4743 46.0334 27.0012 48 27.0012C54.6274 27.0012 60 32.3738 60 39.0012C60 45.6286 54.6274 51.0012 48 51.0012H47.9995H7.99951V51.0007C3.58146 51.0005 0 47.4188 0 43.0007C0 38.5825 3.58172 35.0007 8 35.0007C9.4723 35.0007 10.8517 35.3985 12.0366 36.0923Z" fill="url(#paint0_linear_5_225)"/>
<defs>
<linearGradient id="paint0_linear_5_225" x1="-3.75" y1="19.001" x2="73.2502" y2="51.0008" gradientUnits="userSpaceOnUse">
<stop stop-color="white"/>
<stop offset="1" stop-color="#E0E0E0"/>
</linearGradient>
</defs>
</svg>
